<?xml version="1.0" encoding="UTF-8" standalone="no"?>
<!DOCTYPE svg PUBLIC "-//W3C//DTD SVG 1.1//EN" "http://www.w3.org/Graphics/SVG/1.1/DTD/svg11.dtd">
<svg width="32" height="16" viewBox="0 0 32 16" 
     xmlns="http://www.w3.org/2000/svg" version="1.1">
<title>ascii art generated via p5.asciify</title>
<desc>ascii art visualization of a p5.js sketch</desc>
<g id="ascii-cells">
    <path d="M10 1.60L16 1.60L16 5.60L14 5.60L14 7.60L16 7.60L16 13.60L14 13.60L14 11.60L10 11.60L10 13.60L4 13.60L4 11.60L0 11.60L0 9.60L2 9.60L2 7.60L4 7.60L4 5.60L6 5.60L6 3.60L10 3.60L10 1.60ZM8 7.60L12 7.60L12 5.60L8 5.60L8 7.60Z" fill="#3ecc5f" />
    <path d="M28 7.60L30 7.60L30 9.60L32 9.60L32 11.60L28 11.60L28 13.60L22 13.60L22 11.60L18 11.60L18 13.60L16 13.60L16 7.60L18 7.60L18 5.60L16 5.60L16 1.60L22 1.60L22 3.60L26 3.60L26 5.60L28 5.60L28 7.60ZM24 5.60L20 5.60L20 7.60L24 7.60L24 5.60Z" fill="#3ecc5f" />
</g>
</svg>